# xmcd
#
# Track frame offsets: 
#        150
#        35365
#        46968
#        76608
#        103606
#        122376
#        139619
#        175135
#
# Disc length: 2806 seconds
#
# Revision: 2
# Processed by: cddbd v1.5.2PL0 Copyright (c) Steve Scherf et al.
# Submitted via: ExactAudioCopy v1.0b4
#
DISCID=550af408
DTITLE=James Cotton - Live At Antone's Nightclub
DYEAR=2015
DGENRE=Blues
TTITLE0=Blow Wind Blow
TTITLE1=Juke
TTITLE2=It Ain't Right
TTITLE3=Gone To Main Street
TTITLE4=Oh Baby
TTITLE5=I'm Your Hoochie Coochie Man
TTITLE6=Eyesight To The Blind
TTITLE7=Midnight Creeper
EXTD=
EXTT0=
EXTT1=
EXTT2=
EXTT3=
EXTT4=
EXTT5=
EXTT6=
EXTT7=
PLAYORDER=
